<svg width="430" height="370" viewBox="0 0 430 370" fill="none" xmlns="http://www.w3.org/2000/svg">
<path d="M164.285 -0.254996L234.696 -0.375998C249.235 -0.377998 265.925 -0.868994 280.172 0.409006C317.906 3.69501 353.329 19.979 380.392 46.478C403.395 69.004 410.633 82.422 418.245 113.524C424.64 139.656 429.825 158.644 429.696 186.151C429.462 235.834 415.055 286.995 379.769 323.38C356.879 346.663 325.405 362.965 293.175 367.995C282.923 369.595 275.146 369.59 264.923 369.608L190.679 369.72C177.695 369.693 160.718 370.098 148.05 369.092C113.943 366.382 79.4471 352.059 54.5411 328.415C16.4401 292.444 1.65815 242.875 0.124148 191.913C-1.87485 125.526 20.0892 59.696 78.9072 23.219C107.209 5.667 131.783 0.480004 164.285 -0.254996Z" fill="black"/>
<path d="M226.404 74.056C235.012 73.999 275.997 73.158 280.749 75.164C304.924 84.169 322.983 96.522 333.079 121.19C358.336 182.905 348.001 289.615 264.675 295.587C260.428 296.363 237.24 296.117 231.42 296.031C208.292 295.686 184.021 296.229 160.992 295.474C143.383 292.899 126.966 287.769 114.127 274.878C89.7361 250.413 84.1042 216.608 83.7622 183.638C83.3152 140.514 98.3742 91.492 143.91 77.63C158.39 73.222 171.883 74 186.789 74.011L226.404 74.056Z" fill="#E2E2E2" fill-opacity="0.98"/>
<path d="M160.992 295.474C143.383 292.899 126.966 287.769 114.127 274.878C89.7361 250.413 84.1042 216.608 83.7622 183.638C83.3152 140.514 98.3742 91.492 143.91 77.63C158.39 73.222 171.883 74 186.789 74.011L226.404 74.056C225.072 77.213 217.836 87.829 215.647 91.458C203.31 111.91 189.566 131.451 176.227 151.234L157.333 179.594C151.754 188.101 146.458 196.637 139.993 204.519L210.624 204.481C193.599 234.67 178.654 265.425 160.992 295.474Z" fill="#E2E2E2" fill-opacity="0.98"/>
<path d="M226.404 74.056C235.012 73.999 275.997 73.158 280.749 75.164C278.259 76.682 233.438 153.636 228.516 161.989C251.084 162.016 275.115 162.435 297.569 161.961C290.811 171.497 285.307 181.91 278.711 191.511C255.502 225.295 232.55 260.294 211.611 295.534L264.675 295.587C260.428 296.363 237.24 296.117 231.42 296.031C208.292 295.686 184.021 296.229 160.992 295.474C178.654 265.425 193.599 234.67 210.624 204.481L139.993 204.519C146.458 196.637 151.754 188.101 157.333 179.594L176.227 151.234C189.566 131.451 203.31 111.91 215.647 91.458C217.836 87.829 225.072 77.213 226.404 74.056Z" fill="url(#paint0_linear_3_11)"/>
<defs>
<linearGradient id="paint0_linear_3_11" x1="179.862" y1="300.105" x2="256.548" y2="68.1058" gradientUnits="userSpaceOnUse">
<stop stop-color="#3C1D76"/>
<stop offset="1" stop-color="#83278C"/>
</linearGradient>
</defs>
</svg>
